<?xml version="1.0" standalone="no"?><!DOCTYPE svg PUBLIC "-//W3C//DTD SVG 1.1//EN" "http://www.w3.org/Graphics/SVG/1.1/DTD/svg11.dtd"><svg t="1686193905246" class="icon" viewBox="0 0 1050 1024" version="1.1" xmlns="http://www.w3.org/2000/svg" p-id="4212" xmlns:xlink="http://www.w3.org/1999/xlink" width="32.8125" height="32"><path d="M45.832205 860.869982h477.986535a81.42344 81.42344 0 0 1 81.42344 81.42344 81.42344 81.42344 0 0 1-81.42344 81.42344h-477.986535a20.345263 20.345263 0 0 1-20.345263-20.366457v-122.13516a20.345263 20.345263 0 0 1 20.345263-20.345263z" fill="#396AFC" p-id="4213"></path><path d="M67.872908 903.255947v78.074949h455.945832a39.037474 39.037474 0 0 0 0-78.074949h-455.945832m-22.040703-42.385965h477.986535a81.42344 81.42344 0 0 1 0 162.84688h-477.986535a20.345263 20.345263 0 0 1-20.345263-20.366457v-122.13516a20.345263 20.345263 0 0 1 20.345263-20.345263z" fill="#192547" p-id="4214"></path><path d="M648.560636 860.869982m81.42344 0l238.908496 0q81.42344 0 81.423439 81.42344l0 0q0 81.42344-81.423439 81.42344l-238.908496 0q-81.42344 0-81.42344-81.42344l0 0q0-81.42344 81.42344-81.42344Z" fill="#FFFFFF" p-id="4215"></path><path d="M729.984076 903.255947a39.037474 39.037474 0 0 0 0 78.074949h238.908496a39.037474 39.037474 0 1 0 0-78.074949h-238.908496m0-42.385965h238.908496a81.42344 81.42344 0 0 1 0 162.84688h-238.908496a81.42344 81.42344 0 0 1 0-162.84688z" fill="#192547" p-id="4216"></path><path d="M867.99278 84.825338c-53.660632 99.140774-94.541896 156.107511-135.317195 196.861617l-23.58779 23.545404a32.022597 32.022597 0 0 0 4.895579 49.273685l23.312281 15.576842c12.588632 8.477193 114.88716-0.445053 61.247721 135.63509-58.556211 147.418388-255.905267 212.120565-449.693902 236.407723a263.449969 263.449969 0 0 0-211.929828 149.431722 457.980358 457.980358 0 0 0-35.180352 93.545826 51.710878 51.710878 0 0 1-100.96337-21.871158c55.673966-329.338953 195.865547-976.996507 897.798331-963.009139a399.339375 399.339375 0 0 1-30.581475 84.602388z" fill="#9AB3FF" p-id="4217"></path><path d="M840.335938 43.13874a852.063874 852.063874 0 0 0-184.654459 26.024983 681.968994 681.968994 0 0 0-174.820915 72.056142 723.740363 723.740363 0 0 0-241.769548 240.921828 1220.71581 1220.71581 0 0 0-133.515792 305.178953 2403.051127 2403.051127 0 0 0-62.87958 282.989899 9.367298 9.367298 0 0 0 4.747228 9.791158 9.515649 9.515649 0 0 0 8.138106 0.296702 9.367298 9.367298 0 0 0 5.319438-6.103579 501.150464 501.150464 0 0 1 38.147369-101.408423 307.446602 307.446602 0 0 1 245.202811-172.892354 893.920015 893.920015 0 0 0 262.432706-68.347369c78.414036-36.494316 129.785827-84.136142 152.589477-141.547932 17.950456-45.607299 11.677334-61.099369 10.23621-63.7273-3.518035-6.357895-18.12-9.388491-27.805193-11.338245a71.928984 71.928984 0 0 1-27.784001-9.812351l-23.312281-15.576843a74.408563 74.408563 0 0 1-11.338245-114.442107l23.566596-23.524211a800.840434 800.840434 0 0 0 127.984424-187.028073 224.645618 224.645618 0 0 0 9.621614-21.532071m36.028071-43.021755c7.417544 0 14.835088 0 22.379789 0.233123a399.339375 399.339375 0 0 1-30.666246 84.47523c-53.660632 99.140774-94.541896 156.107511-135.317195 196.861617l-23.58779 23.545404a32.022597 32.022597 0 0 0 4.895579 49.273685l23.312281 15.576842c12.588632 8.477193 114.88716-0.445053 61.247721 135.63509-58.556211 147.418388-255.905267 212.120565-449.693903 236.407723a263.449969 263.449969 0 0 0-211.929828 149.431722 457.937972 457.937972 0 0 0-35.180351 93.545826 51.710878 51.710878 0 0 1-100.96337-21.871158c54.953404-325.651374 192.792565-963.093911 875.312576-963.093911z" fill="#262B3A" p-id="4218"></path></svg>